<?xml version="1.0" encoding="UTF-8" standalone="no"?>
<!-- Created with Inkscape (http://www.inkscape.org/) -->

<svg
   width="500"
   height="500"
   viewBox="0 0 105.83332 105.83333"
   version="1.1"
   id="svg8"
   xmlns="http://www.w3.org/2000/svg"
   xmlns:svg="http://www.w3.org/2000/svg"
   xmlns:rdf="http://www.w3.org/1999/02/22-rdf-syntax-ns#"
   xmlns:cc="http://creativecommons.org/ns#"
   xmlns:dc="http://purl.org/dc/elements/1.1/">
  <defs
     id="defs2" />
  <metadata
     id="metadata5">
    <rdf:RDF>
      <cc:Work
         rdf:about="">
        <dc:format>image/svg+xml</dc:format>
        <dc:type
           rdf:resource="http://purl.org/dc/dcmitype/StillImage" />
      </cc:Work>
    </rdf:RDF>
  </metadata>
  <rect
     id="rect133"
     width="105.83333"
     height="105.83333"
     x="-2.648703e-06"
     y="5.3331922e-07"
     style="fill:#b90005" />
  <path
     d="M 24.511391,34.592278 V 50.877936 H 40.803087 V 34.592278 Z m 11.359856,11.484898 c -0.295541,0.406218 -0.72038,0.720113 -1.182163,0.904758 -0.591083,0.221573 -1.219107,0.332361 -1.847132,0.313896 h -3.675791 v -9.13991 h 3.435664 c 1.015922,0 1.791717,0.203109 2.345857,0.609327 0.554139,0.406219 0.831209,0.997081 0.831209,1.754124 0.01847,0.406218 -0.09236,0.793972 -0.295541,1.126333 -0.221656,0.33236 -0.517197,0.590862 -0.886623,0.757042 0.498725,0.147716 0.923566,0.443148 1.237578,0.849366 0.295541,0.406218 0.443311,0.904759 0.42484,1.421764 0.03695,0.49854 -0.110828,0.997081 -0.387898,1.4033 z m -2.327385,-4.468401 c 0.258599,-0.221574 0.406369,-0.53547 0.387897,-0.886295 0,-0.720113 -0.498724,-1.089403 -1.477704,-1.089403 h -1.40382 v 2.271129 h 1.40382 c 0.461782,0.01847 0.831209,-0.09232 1.089807,-0.295431 z m -0.868152,1.754124 h -1.643947 v 2.474238 h 1.625477 c 0.554139,0 0.978979,-0.110787 1.274519,-0.313895 0.295542,-0.20311 0.461783,-0.53547 0.443313,-0.90476 0,-0.849365 -0.572611,-1.274048 -1.699362,-1.255583 z M 44.866776,34.592278 V 50.877936 H 61.158473 V 34.592278 Z m 11.359857,11.484898 c -0.295541,0.406218 -0.720381,0.720113 -1.182164,0.904758 -0.591082,0.221573 -1.219106,0.332361 -1.865603,0.313896 h -3.657319 v -9.13991 h 3.435664 c 1.015922,0 1.791717,0.203109 2.364327,0.609327 0.55414,0.406219 0.83121,0.997081 0.83121,1.754124 0.01847,0.406218 -0.09236,0.793972 -0.295541,1.126333 -0.221657,0.33236 -0.517197,0.590862 -0.886623,0.757042 0.498725,0.147716 0.923565,0.443148 1.237577,0.849366 0.295541,0.406218 0.443312,0.904759 0.424841,1.421764 0.01847,0.49854 -0.1293,0.997081 -0.406369,1.4033 z m -2.327385,-4.468401 c 0.258598,-0.221574 0.406368,-0.53547 0.387897,-0.886295 0,-0.720113 -0.498725,-1.089403 -1.477704,-1.089403 h -1.40382 v 2.271129 h 1.40382 c 0.461782,0.01847 0.831208,-0.09232 1.089807,-0.295431 z m -0.868152,1.754124 h -1.643947 v 2.474238 h 1.625476 c 0.554139,0 0.978979,-0.110787 1.27452,-0.313895 0.295541,-0.20311 0.461783,-0.53547 0.443312,-0.90476 0,-0.849365 -0.55414,-1.274048 -1.699361,-1.255583 z m 12.191066,7.515037 H 81.513858 V 34.592278 H 65.222162 Z m 11.69234,-4.154504 c -0.406369,0.221573 -0.868152,0.387753 -1.311463,0.49854 -0.517198,0.129251 -1.052865,0.184645 -1.570062,0.184645 -0.664968,0.01846 -1.348406,-0.09232 -1.97643,-0.313896 -0.55414,-0.203109 -1.071336,-0.517005 -1.496177,-0.923223 -0.406369,-0.424683 -0.738852,-0.923223 -0.923565,-1.477157 -0.221656,-0.627793 -0.332484,-1.292513 -0.332484,-1.957234 -0.01847,-0.66472 0.110828,-1.310977 0.332484,-1.920304 0.221655,-0.553934 0.535668,-1.052475 0.960508,-1.477157 0.443311,-0.424683 0.960508,-0.738579 1.514647,-0.941689 0.628025,-0.221573 1.311464,-0.332359 1.976431,-0.332359 0.480254,0 0.960508,0.05539 1.440763,0.147715 0.443311,0.09232 0.868151,0.258503 1.256049,0.461611 v 1.791053 c -0.350956,-0.240037 -0.738853,-0.406218 -1.145222,-0.535469 -0.42484,-0.129251 -0.868152,-0.184644 -1.311463,-0.184644 -0.554139,-0.01846 -1.108279,0.110787 -1.607004,0.350825 -0.443312,0.221573 -0.794266,0.590863 -1.015922,1.015545 -0.258599,0.498541 -0.369427,1.052475 -0.350955,1.624873 -0.01847,0.553934 0.09236,1.126333 0.350955,1.624873 0.221656,0.443147 0.57261,0.793972 0.997451,1.015546 0.498725,0.240038 1.034393,0.369289 1.588532,0.350824 0.923566,0 1.82866,-0.258502 2.622927,-0.738578 z"
     id="path4-1"
     style="fill:#ffffff;stroke-width:0.184679" />
  <polygon
     class="st0"
     points="135.3,135 98.8,135 98.8,151.8 131.2,151.8 131.2,165.6 98.8,165.6 98.8,184.6 137.3,184.6 137.3,198.4 82.2,198.4 82.2,121.2 135.3,121.2 "
     id="polygon6-3"
     style="fill:#ffffff"
     transform="matrix(0.18471311,0,0,0.18464465,24.511391,34.592278)" />
  <path
     class="st0"
     d="m 67.235535,56.971209 h 3.287893 c -0.554139,2.400381 -1.145222,4.800762 -1.773247,7.201142 -0.628024,2.363451 -1.274519,4.708438 -1.957958,7.053425 h -3.250951 c -0.905094,-3.194352 -1.754774,-6.425633 -2.585984,-9.63845 -0.794266,3.231281 -1.643947,6.444098 -2.54904,9.63845 h -3.250951 c -0.683439,-2.344987 -1.329934,-4.689974 -1.957959,-7.053425 -0.628025,-2.381917 -1.219107,-4.782297 -1.773247,-7.201142 h 3.343308 c 0.332483,1.846447 0.683439,3.692894 1.052865,5.53934 0.369426,1.846447 0.757323,3.655964 1.182164,5.447017 0.886623,-3.452855 1.736303,-6.90571 2.530569,-10.377029 h 2.992353 c 0.794266,3.397461 1.625475,6.776459 2.512098,10.155455 0.406369,-1.772588 0.794267,-3.563641 1.163693,-5.33623 0.369426,-1.809518 0.70191,-3.619035 1.034394,-5.428553 z"
     id="path8-7"
     style="fill:#ffffff;stroke-width:0.184679" />
  <path
     class="st0"
     d="m 82.215768,67.034342 c 0,0.941689 -0.240127,1.754125 -0.70191,2.418846 -0.461783,0.66472 -1.145221,1.181725 -2.013373,1.532551 -0.886623,0.350824 -1.939487,0.535469 -3.177066,0.535469 -0.775795,0 -1.57006,-0.09232 -2.327385,-0.258502 -0.775795,-0.166181 -1.514647,-0.443148 -2.198086,-0.812437 v -2.751205 c 1.366877,0.849365 2.918467,1.292512 4.525471,1.292512 0.905095,0 1.588533,-0.147716 2.068788,-0.461611 0.443311,-0.258503 0.720381,-0.757044 0.701909,-1.274048 0,-0.406219 -0.110828,-0.738579 -0.350955,-0.960153 -0.258598,-0.258502 -0.57261,-0.443147 -0.923565,-0.553933 -0.42484,-0.147716 -0.849681,-0.276967 -1.292992,-0.387754 -0.70191,-0.16618 -1.403819,-0.36929 -2.068787,-0.646257 -0.535668,-0.203109 -1.052864,-0.49854 -1.514647,-0.849366 -0.406369,-0.313895 -0.720382,-0.720113 -0.942037,-1.181725 -0.221656,-0.517005 -0.332484,-1.089403 -0.314012,-1.643337 0,-0.904759 0.221655,-1.680267 0.683438,-2.326523 0.498726,-0.683185 1.163692,-1.20019 1.939487,-1.495621 0.83121,-0.350826 1.828661,-0.53547 2.992353,-0.53547 0.757324,0 1.496177,0.09232 2.235028,0.258503 0.68344,0.147716 1.348406,0.387753 1.976431,0.70165 v 2.714276 c -0.609553,-0.369289 -1.292991,-0.646256 -1.976431,-0.830901 -0.72038,-0.20311 -1.477704,-0.295432 -2.216556,-0.295432 -0.812738,0 -1.440763,0.147716 -1.884074,0.424683 -0.424841,0.240038 -0.683438,0.70165 -0.664968,1.20019 -0.01847,0.332361 0.09236,0.646257 0.314012,0.886295 0.258599,0.240037 0.572611,0.424682 0.905095,0.535469 0.387898,0.147716 0.84968,0.276967 1.385348,0.406218 0.683439,0.16618 1.311463,0.369289 1.884074,0.572399 0.55414,0.184645 1.071336,0.461612 1.55159,0.793971 0.443311,0.313897 0.794267,0.738579 1.034394,1.218655 0.240127,0.461612 0.369426,1.052475 0.369426,1.772588 z"
     id="path10-0"
     style="fill:#ffffff;stroke-width:0.184679" />
  <path
     class="st0"
     d="M 36.868699,56.971209 V 71.225776 H 33.765518 C 32.731125,69.563975 31.67826,67.902173 30.625395,66.240371 29.591002,64.615498 28.538136,62.990625 27.485272,61.384216 v 9.84156 H 24.511391 V 56.971209 h 3.10318 c 1.071336,1.606409 2.124201,3.212817 3.177066,4.83769 1.052865,1.624874 2.087258,3.268211 3.121652,4.911548 v -9.749238 z"
     id="path12-0"
     style="fill:#ffffff;stroke-width:0.184679" />
</svg>
